%TF.GenerationSoftware,KiCad,Pcbnew,(6.0.2)*%
%TF.CreationDate,2024-03-28T15:54:17-05:00*%
%TF.ProjectId,Security_Mat,53656375-7269-4747-995f-4d61742e6b69,rev?*%
%TF.SameCoordinates,Original*%
%TF.FileFunction,Legend,Top*%
%TF.FilePolarity,Positive*%
%FSLAX46Y46*%
G04 Gerber Fmt 4.6, Leading zero omitted, Abs format (unit mm)*
G04 Created by KiCad (PCBNEW (6.0.2)) date 2024-03-28 15:54:17*
%MOMM*%
%LPD*%
G01*
G04 APERTURE LIST*
%ADD10C,0.150000*%
%ADD11C,0.120000*%
%ADD12C,0.127000*%
%ADD13C,0.200000*%
G04 APERTURE END LIST*
D10*
X136662380Y-107824285D02*
X136662380Y-108395714D01*
X136662380Y-108110000D02*
X135662380Y-108110000D01*
X135805238Y-108205238D01*
X135900476Y-108300476D01*
X135948095Y-108395714D01*
%TO.C,R7*%
X142327333Y-69455380D02*
X141994000Y-68979190D01*
X141755904Y-69455380D02*
X141755904Y-68455380D01*
X142136857Y-68455380D01*
X142232095Y-68503000D01*
X142279714Y-68550619D01*
X142327333Y-68645857D01*
X142327333Y-68788714D01*
X142279714Y-68883952D01*
X142232095Y-68931571D01*
X142136857Y-68979190D01*
X141755904Y-68979190D01*
X142660666Y-68455380D02*
X143327333Y-68455380D01*
X142898761Y-69455380D01*
%TO.C,R4*%
X161504333Y-88717380D02*
X161171000Y-88241190D01*
X160932904Y-88717380D02*
X160932904Y-87717380D01*
X161313857Y-87717380D01*
X161409095Y-87765000D01*
X161456714Y-87812619D01*
X161504333Y-87907857D01*
X161504333Y-88050714D01*
X161456714Y-88145952D01*
X161409095Y-88193571D01*
X161313857Y-88241190D01*
X160932904Y-88241190D01*
X162361476Y-88050714D02*
X162361476Y-88717380D01*
X162123380Y-87669761D02*
X161885285Y-88384047D01*
X162504333Y-88384047D01*
%TO.C,R5*%
X161885333Y-104761380D02*
X161552000Y-104285190D01*
X161313904Y-104761380D02*
X161313904Y-103761380D01*
X161694857Y-103761380D01*
X161790095Y-103809000D01*
X161837714Y-103856619D01*
X161885333Y-103951857D01*
X161885333Y-104094714D01*
X161837714Y-104189952D01*
X161790095Y-104237571D01*
X161694857Y-104285190D01*
X161313904Y-104285190D01*
X162790095Y-103761380D02*
X162313904Y-103761380D01*
X162266285Y-104237571D01*
X162313904Y-104189952D01*
X162409142Y-104142333D01*
X162647238Y-104142333D01*
X162742476Y-104189952D01*
X162790095Y-104237571D01*
X162837714Y-104332809D01*
X162837714Y-104570904D01*
X162790095Y-104666142D01*
X162742476Y-104713761D01*
X162647238Y-104761380D01*
X162409142Y-104761380D01*
X162313904Y-104713761D01*
X162266285Y-104666142D01*
%TO.C,Q1*%
X123221761Y-85360619D02*
X123126523Y-85313000D01*
X123031285Y-85217761D01*
X122888428Y-85074904D01*
X122793190Y-85027285D01*
X122697952Y-85027285D01*
X122745571Y-85265380D02*
X122650333Y-85217761D01*
X122555095Y-85122523D01*
X122507476Y-84932047D01*
X122507476Y-84598714D01*
X122555095Y-84408238D01*
X122650333Y-84313000D01*
X122745571Y-84265380D01*
X122936047Y-84265380D01*
X123031285Y-84313000D01*
X123126523Y-84408238D01*
X123174142Y-84598714D01*
X123174142Y-84932047D01*
X123126523Y-85122523D01*
X123031285Y-85217761D01*
X122936047Y-85265380D01*
X122745571Y-85265380D01*
X124126523Y-85265380D02*
X123555095Y-85265380D01*
X123840809Y-85265380D02*
X123840809Y-84265380D01*
X123745571Y-84408238D01*
X123650333Y-84503476D01*
X123555095Y-84551095D01*
%TO.C,R6*%
X155535333Y-77414380D02*
X155202000Y-76938190D01*
X154963904Y-77414380D02*
X154963904Y-76414380D01*
X155344857Y-76414380D01*
X155440095Y-76462000D01*
X155487714Y-76509619D01*
X155535333Y-76604857D01*
X155535333Y-76747714D01*
X155487714Y-76842952D01*
X155440095Y-76890571D01*
X155344857Y-76938190D01*
X154963904Y-76938190D01*
X156392476Y-76414380D02*
X156202000Y-76414380D01*
X156106761Y-76462000D01*
X156059142Y-76509619D01*
X155963904Y-76652476D01*
X155916285Y-76842952D01*
X155916285Y-77223904D01*
X155963904Y-77319142D01*
X156011523Y-77366761D01*
X156106761Y-77414380D01*
X156297238Y-77414380D01*
X156392476Y-77366761D01*
X156440095Y-77319142D01*
X156487714Y-77223904D01*
X156487714Y-76985809D01*
X156440095Y-76890571D01*
X156392476Y-76842952D01*
X156297238Y-76795333D01*
X156106761Y-76795333D01*
X156011523Y-76842952D01*
X155963904Y-76890571D01*
X155916285Y-76985809D01*
%TO.C,R2*%
X161869380Y-66714666D02*
X161393190Y-67048000D01*
X161869380Y-67286095D02*
X160869380Y-67286095D01*
X160869380Y-66905142D01*
X160917000Y-66809904D01*
X160964619Y-66762285D01*
X161059857Y-66714666D01*
X161202714Y-66714666D01*
X161297952Y-66762285D01*
X161345571Y-66809904D01*
X161393190Y-66905142D01*
X161393190Y-67286095D01*
X160964619Y-66333714D02*
X160917000Y-66286095D01*
X160869380Y-66190857D01*
X160869380Y-65952761D01*
X160917000Y-65857523D01*
X160964619Y-65809904D01*
X161059857Y-65762285D01*
X161155095Y-65762285D01*
X161297952Y-65809904D01*
X161869380Y-66381333D01*
X161869380Y-65762285D01*
%TO.C,J9*%
X117132380Y-101130333D02*
X117846666Y-101130333D01*
X117989523Y-101177952D01*
X118084761Y-101273190D01*
X118132380Y-101416047D01*
X118132380Y-101511285D01*
X118132380Y-100606523D02*
X118132380Y-100416047D01*
X118084761Y-100320809D01*
X118037142Y-100273190D01*
X117894285Y-100177952D01*
X117703809Y-100130333D01*
X117322857Y-100130333D01*
X117227619Y-100177952D01*
X117180000Y-100225571D01*
X117132380Y-100320809D01*
X117132380Y-100511285D01*
X117180000Y-100606523D01*
X117227619Y-100654142D01*
X117322857Y-100701761D01*
X117560952Y-100701761D01*
X117656190Y-100654142D01*
X117703809Y-100606523D01*
X117751428Y-100511285D01*
X117751428Y-100320809D01*
X117703809Y-100225571D01*
X117656190Y-100177952D01*
X117560952Y-100130333D01*
%TO.C,J8*%
X154652380Y-65333333D02*
X155366666Y-65333333D01*
X155509523Y-65380952D01*
X155604761Y-65476190D01*
X155652380Y-65619047D01*
X155652380Y-65714285D01*
X155080952Y-64714285D02*
X155033333Y-64809523D01*
X154985714Y-64857142D01*
X154890476Y-64904761D01*
X154842857Y-64904761D01*
X154747619Y-64857142D01*
X154700000Y-64809523D01*
X154652380Y-64714285D01*
X154652380Y-64523809D01*
X154700000Y-64428571D01*
X154747619Y-64380952D01*
X154842857Y-64333333D01*
X154890476Y-64333333D01*
X154985714Y-64380952D01*
X155033333Y-64428571D01*
X155080952Y-64523809D01*
X155080952Y-64714285D01*
X155128571Y-64809523D01*
X155176190Y-64857142D01*
X155271428Y-64904761D01*
X155461904Y-64904761D01*
X155557142Y-64857142D01*
X155604761Y-64809523D01*
X155652380Y-64714285D01*
X155652380Y-64523809D01*
X155604761Y-64428571D01*
X155557142Y-64380952D01*
X155461904Y-64333333D01*
X155271428Y-64333333D01*
X155176190Y-64380952D01*
X155128571Y-64428571D01*
X155080952Y-64523809D01*
%TO.C,R3*%
X162139333Y-73985380D02*
X161806000Y-73509190D01*
X161567904Y-73985380D02*
X161567904Y-72985380D01*
X161948857Y-72985380D01*
X162044095Y-73033000D01*
X162091714Y-73080619D01*
X162139333Y-73175857D01*
X162139333Y-73318714D01*
X162091714Y-73413952D01*
X162044095Y-73461571D01*
X161948857Y-73509190D01*
X161567904Y-73509190D01*
X162472666Y-72985380D02*
X163091714Y-72985380D01*
X162758380Y-73366333D01*
X162901238Y-73366333D01*
X162996476Y-73413952D01*
X163044095Y-73461571D01*
X163091714Y-73556809D01*
X163091714Y-73794904D01*
X163044095Y-73890142D01*
X162996476Y-73937761D01*
X162901238Y-73985380D01*
X162615523Y-73985380D01*
X162520285Y-73937761D01*
X162472666Y-73890142D01*
%TO.C,Q2*%
X125284619Y-103219238D02*
X125237000Y-103314476D01*
X125141761Y-103409714D01*
X124998904Y-103552571D01*
X124951285Y-103647809D01*
X124951285Y-103743047D01*
X125189380Y-103695428D02*
X125141761Y-103790666D01*
X125046523Y-103885904D01*
X124856047Y-103933523D01*
X124522714Y-103933523D01*
X124332238Y-103885904D01*
X124237000Y-103790666D01*
X124189380Y-103695428D01*
X124189380Y-103504952D01*
X124237000Y-103409714D01*
X124332238Y-103314476D01*
X124522714Y-103266857D01*
X124856047Y-103266857D01*
X125046523Y-103314476D01*
X125141761Y-103409714D01*
X125189380Y-103504952D01*
X125189380Y-103695428D01*
X124284619Y-102885904D02*
X124237000Y-102838285D01*
X124189380Y-102743047D01*
X124189380Y-102504952D01*
X124237000Y-102409714D01*
X124284619Y-102362095D01*
X124379857Y-102314476D01*
X124475095Y-102314476D01*
X124617952Y-102362095D01*
X125189380Y-102933523D01*
X125189380Y-102314476D01*
%TO.C,J2*%
X162393380Y-81232333D02*
X163107666Y-81232333D01*
X163250523Y-81279952D01*
X163345761Y-81375190D01*
X163393380Y-81518047D01*
X163393380Y-81613285D01*
X162488619Y-80803761D02*
X162441000Y-80756142D01*
X162393380Y-80660904D01*
X162393380Y-80422809D01*
X162441000Y-80327571D01*
X162488619Y-80279952D01*
X162583857Y-80232333D01*
X162679095Y-80232333D01*
X162821952Y-80279952D01*
X163393380Y-80851380D01*
X163393380Y-80232333D01*
%TO.C,J3*%
X162774380Y-94948333D02*
X163488666Y-94948333D01*
X163631523Y-94995952D01*
X163726761Y-95091190D01*
X163774380Y-95234047D01*
X163774380Y-95329285D01*
X162774380Y-94567380D02*
X162774380Y-93948333D01*
X163155333Y-94281666D01*
X163155333Y-94138809D01*
X163202952Y-94043571D01*
X163250571Y-93995952D01*
X163345809Y-93948333D01*
X163583904Y-93948333D01*
X163679142Y-93995952D01*
X163726761Y-94043571D01*
X163774380Y-94138809D01*
X163774380Y-94424523D01*
X163726761Y-94519761D01*
X163679142Y-94567380D01*
%TO.C,J7*%
X124222380Y-62683333D02*
X124936666Y-62683333D01*
X125079523Y-62730952D01*
X125174761Y-62826190D01*
X125222380Y-62969047D01*
X125222380Y-63064285D01*
X124222380Y-62302380D02*
X124222380Y-61635714D01*
X125222380Y-62064285D01*
%TO.C,J5*%
X133422380Y-111033333D02*
X134136666Y-111033333D01*
X134279523Y-111080952D01*
X134374761Y-111176190D01*
X134422380Y-111319047D01*
X134422380Y-111414285D01*
X133422380Y-110080952D02*
X133422380Y-110557142D01*
X133898571Y-110604761D01*
X133850952Y-110557142D01*
X133803333Y-110461904D01*
X133803333Y-110223809D01*
X133850952Y-110128571D01*
X133898571Y-110080952D01*
X133993809Y-110033333D01*
X134231904Y-110033333D01*
X134327142Y-110080952D01*
X134374761Y-110128571D01*
X134422380Y-110223809D01*
X134422380Y-110461904D01*
X134374761Y-110557142D01*
X134327142Y-110604761D01*
%TO.C,SW1*%
X152463666Y-69238761D02*
X152606523Y-69286380D01*
X152844619Y-69286380D01*
X152939857Y-69238761D01*
X152987476Y-69191142D01*
X153035095Y-69095904D01*
X153035095Y-69000666D01*
X152987476Y-68905428D01*
X152939857Y-68857809D01*
X152844619Y-68810190D01*
X152654142Y-68762571D01*
X152558904Y-68714952D01*
X152511285Y-68667333D01*
X152463666Y-68572095D01*
X152463666Y-68476857D01*
X152511285Y-68381619D01*
X152558904Y-68334000D01*
X152654142Y-68286380D01*
X152892238Y-68286380D01*
X153035095Y-68334000D01*
X153368428Y-68286380D02*
X153606523Y-69286380D01*
X153797000Y-68572095D01*
X153987476Y-69286380D01*
X154225571Y-68286380D01*
X155130333Y-69286380D02*
X154558904Y-69286380D01*
X154844619Y-69286380D02*
X154844619Y-68286380D01*
X154749380Y-68429238D01*
X154654142Y-68524476D01*
X154558904Y-68572095D01*
%TO.C,Q3*%
X125792619Y-68802238D02*
X125745000Y-68897476D01*
X125649761Y-68992714D01*
X125506904Y-69135571D01*
X125459285Y-69230809D01*
X125459285Y-69326047D01*
X125697380Y-69278428D02*
X125649761Y-69373666D01*
X125554523Y-69468904D01*
X125364047Y-69516523D01*
X125030714Y-69516523D01*
X124840238Y-69468904D01*
X124745000Y-69373666D01*
X124697380Y-69278428D01*
X124697380Y-69087952D01*
X124745000Y-68992714D01*
X124840238Y-68897476D01*
X125030714Y-68849857D01*
X125364047Y-68849857D01*
X125554523Y-68897476D01*
X125649761Y-68992714D01*
X125697380Y-69087952D01*
X125697380Y-69278428D01*
X124697380Y-68516523D02*
X124697380Y-67897476D01*
X125078333Y-68230809D01*
X125078333Y-68087952D01*
X125125952Y-67992714D01*
X125173571Y-67945095D01*
X125268809Y-67897476D01*
X125506904Y-67897476D01*
X125602142Y-67945095D01*
X125649761Y-67992714D01*
X125697380Y-68087952D01*
X125697380Y-68373666D01*
X125649761Y-68468904D01*
X125602142Y-68516523D01*
%TO.C,J6*%
X156192380Y-110983333D02*
X156906666Y-110983333D01*
X157049523Y-111030952D01*
X157144761Y-111126190D01*
X157192380Y-111269047D01*
X157192380Y-111364285D01*
X156192380Y-110078571D02*
X156192380Y-110269047D01*
X156240000Y-110364285D01*
X156287619Y-110411904D01*
X156430476Y-110507142D01*
X156620952Y-110554761D01*
X157001904Y-110554761D01*
X157097142Y-110507142D01*
X157144761Y-110459523D01*
X157192380Y-110364285D01*
X157192380Y-110173809D01*
X157144761Y-110078571D01*
X157097142Y-110030952D01*
X157001904Y-109983333D01*
X156763809Y-109983333D01*
X156668571Y-110030952D01*
X156620952Y-110078571D01*
X156573333Y-110173809D01*
X156573333Y-110364285D01*
X156620952Y-110459523D01*
X156668571Y-110507142D01*
X156763809Y-110554761D01*
%TO.C,J1*%
X162774380Y-70818333D02*
X163488666Y-70818333D01*
X163631523Y-70865952D01*
X163726761Y-70961190D01*
X163774380Y-71104047D01*
X163774380Y-71199285D01*
X163774380Y-69818333D02*
X163774380Y-70389761D01*
X163774380Y-70104047D02*
X162774380Y-70104047D01*
X162917238Y-70199285D01*
X163012476Y-70294523D01*
X163060095Y-70389761D01*
%TO.C,U1*%
X154290380Y-84381904D02*
X155099904Y-84381904D01*
X155195142Y-84334285D01*
X155242761Y-84286666D01*
X155290380Y-84191428D01*
X155290380Y-84000952D01*
X155242761Y-83905714D01*
X155195142Y-83858095D01*
X155099904Y-83810476D01*
X154290380Y-83810476D01*
X155290380Y-82810476D02*
X155290380Y-83381904D01*
X155290380Y-83096190D02*
X154290380Y-83096190D01*
X154433238Y-83191428D01*
X154528476Y-83286666D01*
X154576095Y-83381904D01*
%TO.C,R1*%
X157948333Y-66746380D02*
X157615000Y-66270190D01*
X157376904Y-66746380D02*
X157376904Y-65746380D01*
X157757857Y-65746380D01*
X157853095Y-65794000D01*
X157900714Y-65841619D01*
X157948333Y-65936857D01*
X157948333Y-66079714D01*
X157900714Y-66174952D01*
X157853095Y-66222571D01*
X157757857Y-66270190D01*
X157376904Y-66270190D01*
X158900714Y-66746380D02*
X158329285Y-66746380D01*
X158615000Y-66746380D02*
X158615000Y-65746380D01*
X158519761Y-65889238D01*
X158424523Y-65984476D01*
X158329285Y-66032095D01*
%TO.C,J10*%
X117209380Y-65531523D02*
X117923666Y-65531523D01*
X118066523Y-65579142D01*
X118161761Y-65674380D01*
X118209380Y-65817238D01*
X118209380Y-65912476D01*
X118209380Y-64531523D02*
X118209380Y-65102952D01*
X118209380Y-64817238D02*
X117209380Y-64817238D01*
X117352238Y-64912476D01*
X117447476Y-65007714D01*
X117495095Y-65102952D01*
X117209380Y-63912476D02*
X117209380Y-63817238D01*
X117257000Y-63722000D01*
X117304619Y-63674380D01*
X117399857Y-63626761D01*
X117590333Y-63579142D01*
X117828428Y-63579142D01*
X118018904Y-63626761D01*
X118114142Y-63674380D01*
X118161761Y-63722000D01*
X118209380Y-63817238D01*
X118209380Y-63912476D01*
X118161761Y-64007714D01*
X118114142Y-64055333D01*
X118018904Y-64102952D01*
X117828428Y-64150571D01*
X117590333Y-64150571D01*
X117399857Y-64102952D01*
X117304619Y-64055333D01*
X117257000Y-64007714D01*
X117209380Y-63912476D01*
%TO.C,LS1*%
X135244000Y-94232333D02*
X134577333Y-94232333D01*
X134577333Y-92832333D01*
X135644000Y-94165666D02*
X135844000Y-94232333D01*
X136177333Y-94232333D01*
X136310666Y-94165666D01*
X136377333Y-94099000D01*
X136444000Y-93965666D01*
X136444000Y-93832333D01*
X136377333Y-93699000D01*
X136310666Y-93632333D01*
X136177333Y-93565666D01*
X135910666Y-93499000D01*
X135777333Y-93432333D01*
X135710666Y-93365666D01*
X135644000Y-93232333D01*
X135644000Y-93099000D01*
X135710666Y-92965666D01*
X135777333Y-92899000D01*
X135910666Y-92832333D01*
X136244000Y-92832333D01*
X136444000Y-92899000D01*
X137777333Y-94232333D02*
X136977333Y-94232333D01*
X137377333Y-94232333D02*
X137377333Y-92832333D01*
X137244000Y-93032333D01*
X137110666Y-93165666D01*
X136977333Y-93232333D01*
%TO.C,J11*%
X117463380Y-77210523D02*
X118177666Y-77210523D01*
X118320523Y-77258142D01*
X118415761Y-77353380D01*
X118463380Y-77496238D01*
X118463380Y-77591476D01*
X118463380Y-76210523D02*
X118463380Y-76781952D01*
X118463380Y-76496238D02*
X117463380Y-76496238D01*
X117606238Y-76591476D01*
X117701476Y-76686714D01*
X117749095Y-76781952D01*
X118463380Y-75258142D02*
X118463380Y-75829571D01*
X118463380Y-75543857D02*
X117463380Y-75543857D01*
X117606238Y-75639095D01*
X117701476Y-75734333D01*
X117749095Y-75829571D01*
%TO.C,J4*%
X163282380Y-98250333D02*
X163996666Y-98250333D01*
X164139523Y-98297952D01*
X164234761Y-98393190D01*
X164282380Y-98536047D01*
X164282380Y-98631285D01*
X163615714Y-97345571D02*
X164282380Y-97345571D01*
X163234761Y-97583666D02*
X163949047Y-97821761D01*
X163949047Y-97202714D01*
%TO.C,J12*%
X118070380Y-93265523D02*
X118784666Y-93265523D01*
X118927523Y-93313142D01*
X119022761Y-93408380D01*
X119070380Y-93551238D01*
X119070380Y-93646476D01*
X119070380Y-92265523D02*
X119070380Y-92836952D01*
X119070380Y-92551238D02*
X118070380Y-92551238D01*
X118213238Y-92646476D01*
X118308476Y-92741714D01*
X118356095Y-92836952D01*
X118165619Y-91884571D02*
X118118000Y-91836952D01*
X118070380Y-91741714D01*
X118070380Y-91503619D01*
X118118000Y-91408380D01*
X118165619Y-91360761D01*
X118260857Y-91313142D01*
X118356095Y-91313142D01*
X118498952Y-91360761D01*
X119070380Y-91932190D01*
X119070380Y-91313142D01*
D11*
%TO.C,R7*%
X143221064Y-66273000D02*
X141766936Y-66273000D01*
X143221064Y-68093000D02*
X141766936Y-68093000D01*
%TO.C,R4*%
X162271064Y-89133000D02*
X160816936Y-89133000D01*
X162271064Y-90953000D02*
X160816936Y-90953000D01*
%TO.C,R5*%
X162779064Y-101579000D02*
X161324936Y-101579000D01*
X162779064Y-103399000D02*
X161324936Y-103399000D01*
%TO.C,Q1*%
X118197000Y-90454000D02*
X128437000Y-90454000D01*
X118197000Y-87323000D02*
X128437000Y-87323000D01*
X121467000Y-85813000D02*
X121467000Y-87323000D01*
X125168000Y-85813000D02*
X125168000Y-87323000D01*
X118197000Y-85813000D02*
X128437000Y-85813000D01*
X128437000Y-85813000D02*
X128437000Y-90454000D01*
X118197000Y-85813000D02*
X118197000Y-90454000D01*
%TO.C,R6*%
X155939258Y-77836500D02*
X155464742Y-77836500D01*
X155939258Y-78881500D02*
X155464742Y-78881500D01*
%TO.C,R2*%
X163336500Y-66754742D02*
X163336500Y-67229258D01*
X162291500Y-66754742D02*
X162291500Y-67229258D01*
%TO.C,J9*%
X116840000Y-97917000D02*
X109220000Y-97917000D01*
X109220000Y-97917000D02*
X109220000Y-108077000D01*
X110490000Y-108077000D02*
X110490000Y-97917000D01*
X116840000Y-108077000D02*
X116840000Y-97917000D01*
X109220000Y-108077000D02*
X116840000Y-108077000D01*
%TO.C,J8*%
X152660000Y-63720000D02*
X152660000Y-62390000D01*
X155260000Y-63720000D02*
X173100000Y-63720000D01*
X155260000Y-63720000D02*
X155260000Y-61060000D01*
X173100000Y-63720000D02*
X173100000Y-61060000D01*
X153990000Y-63720000D02*
X152660000Y-63720000D01*
X155260000Y-61060000D02*
X173100000Y-61060000D01*
%TO.C,R3*%
X162670258Y-75579500D02*
X162195742Y-75579500D01*
X162670258Y-74534500D02*
X162195742Y-74534500D01*
%TO.C,Q2*%
X122227000Y-98004000D02*
X122227000Y-108244000D01*
X123737000Y-108244000D02*
X119096000Y-108244000D01*
X119096000Y-98004000D02*
X119096000Y-108244000D01*
X123737000Y-98004000D02*
X119096000Y-98004000D01*
X123737000Y-98004000D02*
X123737000Y-108244000D01*
X123737000Y-104975000D02*
X122227000Y-104975000D01*
X123737000Y-101274000D02*
X122227000Y-101274000D01*
%TO.C,J2*%
X164211000Y-75819000D02*
X164211000Y-85979000D01*
X164211000Y-85979000D02*
X171831000Y-85979000D01*
X171831000Y-85979000D02*
X171831000Y-75819000D01*
X170561000Y-75819000D02*
X170561000Y-85979000D01*
X171831000Y-75819000D02*
X164211000Y-75819000D01*
%TO.C,J3*%
X171831000Y-96774000D02*
X171831000Y-86614000D01*
X170561000Y-86614000D02*
X170561000Y-96774000D01*
X164211000Y-96774000D02*
X171831000Y-96774000D01*
X171831000Y-86614000D02*
X164211000Y-86614000D01*
X164211000Y-86614000D02*
X164211000Y-96774000D01*
%TO.C,J7*%
X125770000Y-63680000D02*
X125770000Y-62350000D01*
X128370000Y-61020000D02*
X151290000Y-61020000D01*
X128370000Y-63680000D02*
X128370000Y-61020000D01*
X151290000Y-63680000D02*
X151290000Y-61020000D01*
X128370000Y-63680000D02*
X151290000Y-63680000D01*
X127100000Y-63680000D02*
X125770000Y-63680000D01*
%TO.C,J5*%
X134970000Y-112030000D02*
X134970000Y-110700000D01*
X136300000Y-112030000D02*
X134970000Y-112030000D01*
X155410000Y-112030000D02*
X155410000Y-109370000D01*
X137570000Y-112030000D02*
X137570000Y-109370000D01*
X137570000Y-109370000D02*
X155410000Y-109370000D01*
X137570000Y-112030000D02*
X155410000Y-112030000D01*
D12*
%TO.C,SW1*%
X153337000Y-69771000D02*
X159337000Y-69771000D01*
X153337000Y-71696000D02*
X153337000Y-69771000D01*
X159337000Y-69771000D02*
X159337000Y-71696000D01*
X153337000Y-75771000D02*
X153337000Y-73846000D01*
X159337000Y-73846000D02*
X159337000Y-75771000D01*
X159337000Y-75771000D02*
X153337000Y-75771000D01*
D13*
X152637000Y-72771000D02*
G75*
G03*
X152637000Y-72771000I-100000J0D01*
G01*
D11*
%TO.C,Q3*%
X124245000Y-63587000D02*
X124245000Y-73827000D01*
X122735000Y-63587000D02*
X122735000Y-73827000D01*
X124245000Y-70558000D02*
X122735000Y-70558000D01*
X124245000Y-66857000D02*
X122735000Y-66857000D01*
X124245000Y-73827000D02*
X119604000Y-73827000D01*
X124245000Y-63587000D02*
X119604000Y-63587000D01*
X119604000Y-63587000D02*
X119604000Y-73827000D01*
%TO.C,J6*%
X160340000Y-111980000D02*
X160340000Y-109320000D01*
X173100000Y-111980000D02*
X173100000Y-109320000D01*
X160340000Y-111980000D02*
X173100000Y-111980000D01*
X159070000Y-111980000D02*
X157740000Y-111980000D01*
X157740000Y-111980000D02*
X157740000Y-110650000D01*
X160340000Y-109320000D02*
X173100000Y-109320000D01*
%TO.C,J1*%
X164211000Y-75057000D02*
X171831000Y-75057000D01*
X164211000Y-64897000D02*
X164211000Y-75057000D01*
X170561000Y-64897000D02*
X170561000Y-75057000D01*
X171831000Y-75057000D02*
X171831000Y-64897000D01*
X171831000Y-64897000D02*
X164211000Y-64897000D01*
%TO.C,U1*%
X158788000Y-80160000D02*
X158088000Y-80160000D01*
X158788000Y-79960000D02*
X158788000Y-80160000D01*
X160148000Y-79660000D02*
X158898000Y-79660000D01*
X156328000Y-80160000D02*
X156328000Y-87480000D01*
X156128000Y-79960000D02*
X156128000Y-87680000D01*
X159648000Y-80160000D02*
X159648000Y-87480000D01*
X158788000Y-87480000D02*
X158088000Y-87480000D01*
X158088000Y-87480000D02*
X158088000Y-87680000D01*
X156328000Y-87480000D02*
X158088000Y-87480000D01*
X158788000Y-80160000D02*
X159648000Y-80160000D01*
X158088000Y-80160000D02*
X156328000Y-80160000D01*
X159648000Y-87480000D02*
X158788000Y-87480000D01*
X158088000Y-80160000D02*
X158088000Y-79960000D01*
X160148000Y-80910000D02*
X160148000Y-79660000D01*
X159848000Y-87680000D02*
X159848000Y-79960000D01*
X158788000Y-87480000D02*
X158788000Y-87680000D01*
X159848000Y-79960000D02*
X156128000Y-79960000D01*
X156128000Y-87680000D02*
X159848000Y-87680000D01*
%TO.C,R1*%
X157877742Y-68213500D02*
X158352258Y-68213500D01*
X157877742Y-67168500D02*
X158352258Y-67168500D01*
%TO.C,J10*%
X109347000Y-73914000D02*
X116967000Y-73914000D01*
X116967000Y-63754000D02*
X109347000Y-63754000D01*
X116967000Y-73914000D02*
X116967000Y-63754000D01*
X110617000Y-73914000D02*
X110617000Y-63754000D01*
X109347000Y-63754000D02*
X109347000Y-73914000D01*
D12*
%TO.C,LS1*%
X142498000Y-101092000D02*
G75*
G03*
X142498000Y-101092000I-6100000J0D01*
G01*
D11*
%TO.C,J11*%
X109347000Y-74930000D02*
X109347000Y-85090000D01*
X116967000Y-85090000D02*
X116967000Y-74930000D01*
X110617000Y-85090000D02*
X110617000Y-74930000D01*
X116967000Y-74930000D02*
X109347000Y-74930000D01*
X109347000Y-85090000D02*
X116967000Y-85090000D01*
%TO.C,J4*%
X164719000Y-97409000D02*
X164719000Y-107569000D01*
X172339000Y-97409000D02*
X164719000Y-97409000D01*
X171069000Y-97409000D02*
X171069000Y-107569000D01*
X172339000Y-107569000D02*
X172339000Y-97409000D01*
X164719000Y-107569000D02*
X172339000Y-107569000D01*
%TO.C,J12*%
X111252000Y-96520000D02*
X111252000Y-86360000D01*
X109982000Y-96520000D02*
X117602000Y-96520000D01*
X109982000Y-86360000D02*
X109982000Y-96520000D01*
X117602000Y-86360000D02*
X109982000Y-86360000D01*
X117602000Y-96520000D02*
X117602000Y-86360000D01*
%TD*%
M02*
