M48
; DRILL file {KiCad (6.0.2)} date Thu Mar 28 15:54:25 2024
; FORMAT={-:-/ absolute / metric / decimal}
; #@! TF.CreationDate,2024-03-28T15:54:25-05:00
; #@! TF.GenerationSoftware,Kicad,Pcbnew,(6.0.2)
; #@! TF.FileFunction,Plated,1,2,PTH
FMAT,2
METRIC
; #@! TA.AperFunction,Plated,PTH,ComponentDrill
T1C0.850
; #@! TA.AperFunction,Plated,PTH,ComponentDrill
T2C0.870
; #@! TA.AperFunction,Plated,PTH,ComponentDrill
T3C1.000
; #@! TA.AperFunction,Plated,PTH,ComponentDrill
T4C1.100
; #@! TA.AperFunction,Plated,PTH,ComponentDrill
T5C1.520
%
G90
G05
T1
X133.898Y-101.092
X138.898Y-101.092
T2
X158.438Y-81.57
X158.438Y-83.07
X158.438Y-84.57
X158.438Y-86.07
T3
X127.1Y-62.35
X129.64Y-62.35
X132.18Y-62.35
X134.72Y-62.35
X136.3Y-110.7
X137.26Y-62.35
X138.84Y-110.7
X139.8Y-62.35
X141.38Y-110.7
X142.34Y-62.35
X143.92Y-110.7
X144.88Y-62.35
X146.46Y-110.7
X147.42Y-62.35
X149.0Y-110.7
X149.96Y-62.35
X151.54Y-110.7
X153.837Y-72.771
X153.99Y-62.39
X154.08Y-110.7
X156.53Y-62.39
X158.837Y-72.771
X159.07Y-62.39
X159.07Y-110.65
X161.61Y-62.39
X161.61Y-110.65
X164.15Y-62.39
X164.15Y-110.65
X166.69Y-62.39
X166.69Y-110.65
X169.23Y-62.39
X169.23Y-110.65
X171.77Y-62.39
X171.77Y-110.65
T4
X120.467Y-100.584
X120.467Y-103.124
X120.467Y-105.664
X120.777Y-89.083
X120.975Y-66.167
X120.975Y-68.707
X120.975Y-71.247
X123.317Y-89.083
X125.857Y-89.083
T5
X113.03Y-100.457
X113.03Y-105.537
X113.157Y-66.294
X113.157Y-71.374
X113.157Y-77.47
X113.157Y-82.55
X113.792Y-88.9
X113.792Y-93.98
X168.021Y-67.437
X168.021Y-72.517
X168.021Y-78.359
X168.021Y-83.439
X168.021Y-89.154
X168.021Y-94.234
X168.529Y-99.949
X168.529Y-105.029
T0
M30
