%TF.GenerationSoftware,KiCad,Pcbnew,(6.0.2)*%
%TF.CreationDate,2024-03-28T15:54:17-05:00*%
%TF.ProjectId,Security_Mat,53656375-7269-4747-995f-4d61742e6b69,rev?*%
%TF.SameCoordinates,Original*%
%TF.FileFunction,Soldermask,Top*%
%TF.FilePolarity,Negative*%
%FSLAX46Y46*%
G04 Gerber Fmt 4.6, Leading zero omitted, Abs format (unit mm)*
G04 Created by KiCad (PCBNEW (6.0.2)) date 2024-03-28 15:54:17*
%MOMM*%
%LPD*%
G01*
G04 APERTURE LIST*
G04 Aperture macros list*
%AMRoundRect*
0 Rectangle with rounded corners*
0 $1 Rounding radius*
0 $2 $3 $4 $5 $6 $7 $8 $9 X,Y pos of 4 corners*
0 Add a 4 corners polygon primitive as box body*
4,1,4,$2,$3,$4,$5,$6,$7,$8,$9,$2,$3,0*
0 Add four circle primitives for the rounded corners*
1,1,$1+$1,$2,$3*
1,1,$1+$1,$4,$5*
1,1,$1+$1,$6,$7*
1,1,$1+$1,$8,$9*
0 Add four rect primitives between the rounded corners*
20,1,$1+$1,$2,$3,$4,$5,0*
20,1,$1+$1,$4,$5,$6,$7,0*
20,1,$1+$1,$6,$7,$8,$9,0*
20,1,$1+$1,$8,$9,$2,$3,0*%
G04 Aperture macros list end*
%ADD10RoundRect,0.250000X0.312500X0.625000X-0.312500X0.625000X-0.312500X-0.625000X0.312500X-0.625000X0*%
%ADD11R,1.905000X2.000000*%
%ADD12O,1.905000X2.000000*%
%ADD13RoundRect,0.200000X0.200000X0.275000X-0.200000X0.275000X-0.200000X-0.275000X0.200000X-0.275000X0*%
%ADD14RoundRect,0.200000X-0.275000X0.200000X-0.275000X-0.200000X0.275000X-0.200000X0.275000X0.200000X0*%
%ADD15R,3.000000X3.000000*%
%ADD16C,3.000000*%
%ADD17R,1.700000X1.700000*%
%ADD18O,1.700000X1.700000*%
%ADD19R,2.000000X1.905000*%
%ADD20O,2.000000X1.905000*%
%ADD21C,1.712000*%
%ADD22RoundRect,0.250000X-0.685000X0.335000X-0.685000X-0.335000X0.685000X-0.335000X0.685000X0.335000X0*%
%ADD23O,1.870000X1.170000*%
%ADD24RoundRect,0.200000X-0.200000X-0.275000X0.200000X-0.275000X0.200000X0.275000X-0.200000X0.275000X0*%
%ADD25C,1.484000*%
G04 APERTURE END LIST*
D10*
%TO.C,R7*%
X143956500Y-67183000D03*
X141031500Y-67183000D03*
%TD*%
%TO.C,R4*%
X163006500Y-90043000D03*
X160081500Y-90043000D03*
%TD*%
%TO.C,R5*%
X163514500Y-102489000D03*
X160589500Y-102489000D03*
%TD*%
D11*
%TO.C,Q1*%
X120777000Y-89083000D03*
D12*
X123317000Y-89083000D03*
X125857000Y-89083000D03*
%TD*%
D13*
%TO.C,R6*%
X156527000Y-78359000D03*
X154877000Y-78359000D03*
%TD*%
D14*
%TO.C,R2*%
X162814000Y-66167000D03*
X162814000Y-67817000D03*
%TD*%
D15*
%TO.C,J9*%
X113030000Y-100457000D03*
D16*
X113030000Y-105537000D03*
%TD*%
D17*
%TO.C,J8*%
X153990000Y-62390000D03*
D18*
X156530000Y-62390000D03*
X159070000Y-62390000D03*
X161610000Y-62390000D03*
X164150000Y-62390000D03*
X166690000Y-62390000D03*
X169230000Y-62390000D03*
X171770000Y-62390000D03*
%TD*%
D13*
%TO.C,R3*%
X163258000Y-75057000D03*
X161608000Y-75057000D03*
%TD*%
D19*
%TO.C,Q2*%
X120467000Y-100584000D03*
D20*
X120467000Y-103124000D03*
X120467000Y-105664000D03*
%TD*%
D15*
%TO.C,J2*%
X168021000Y-83439000D03*
D16*
X168021000Y-78359000D03*
%TD*%
D15*
%TO.C,J3*%
X168021000Y-94234000D03*
D16*
X168021000Y-89154000D03*
%TD*%
D17*
%TO.C,J7*%
X127100000Y-62350000D03*
D18*
X129640000Y-62350000D03*
X132180000Y-62350000D03*
X134720000Y-62350000D03*
X137260000Y-62350000D03*
X139800000Y-62350000D03*
X142340000Y-62350000D03*
X144880000Y-62350000D03*
X147420000Y-62350000D03*
X149960000Y-62350000D03*
%TD*%
D17*
%TO.C,J5*%
X136300000Y-110700000D03*
D18*
X138840000Y-110700000D03*
X141380000Y-110700000D03*
X143920000Y-110700000D03*
X146460000Y-110700000D03*
X149000000Y-110700000D03*
X151540000Y-110700000D03*
X154080000Y-110700000D03*
%TD*%
D21*
%TO.C,SW1*%
X153837000Y-72771000D03*
X158837000Y-72771000D03*
%TD*%
D19*
%TO.C,Q3*%
X120975000Y-66167000D03*
D20*
X120975000Y-68707000D03*
X120975000Y-71247000D03*
%TD*%
D17*
%TO.C,J6*%
X159070000Y-110650000D03*
D18*
X161610000Y-110650000D03*
X164150000Y-110650000D03*
X166690000Y-110650000D03*
X169230000Y-110650000D03*
X171770000Y-110650000D03*
%TD*%
D15*
%TO.C,J1*%
X168021000Y-72517000D03*
D16*
X168021000Y-67437000D03*
%TD*%
D22*
%TO.C,U1*%
X158438000Y-81570000D03*
D23*
X158438000Y-83070000D03*
X158438000Y-84570000D03*
X158438000Y-86070000D03*
%TD*%
D24*
%TO.C,R1*%
X157290000Y-67691000D03*
X158940000Y-67691000D03*
%TD*%
D15*
%TO.C,J10*%
X113157000Y-66294000D03*
D16*
X113157000Y-71374000D03*
%TD*%
D25*
%TO.C,LS1*%
X138898000Y-101092000D03*
X133898000Y-101092000D03*
%TD*%
D15*
%TO.C,J11*%
X113157000Y-77470000D03*
D16*
X113157000Y-82550000D03*
%TD*%
D15*
%TO.C,J4*%
X168529000Y-105029000D03*
D16*
X168529000Y-99949000D03*
%TD*%
D15*
%TO.C,J12*%
X113792000Y-88900000D03*
D16*
X113792000Y-93980000D03*
%TD*%
M02*
